<svg width="72" height="72" viewBox="0 0 72 72" fill="none" xmlns="http://www.w3.org/2000/svg">
<rect width="72" height="72" rx="10" fill="#FB7422"/>
<mask id="mask0_140_4" style="mask-type:luminance" maskUnits="userSpaceOnUse" x="12" y="15" width="48" height="43">
<path d="M12 15H59.76V57.0077H12V15Z" fill="white"/>
</mask>
<g mask="url(#mask0_140_4)">
<path d="M35.8875 15.0005L31.7117 17.5242L26.743 16.6008L23.9671 20.335L18.9984 21.1558L18.0652 25.526L13.8197 27.9676L14.8462 32.3381L12 36.0107L14.8462 39.7039L13.8197 44.0538L18.0652 46.4954L18.9984 50.8657L23.9671 51.707L26.743 55.4207L31.7117 54.518L35.8875 57.0212L40.063 54.518L45.0317 55.4207L47.8079 51.707L52.7766 50.8657L53.7097 46.4954L57.9553 44.0538L56.9288 39.7039L59.7747 36.0107L56.9288 32.3381L57.9553 27.9676L53.7097 25.526L52.7766 21.1558L47.8079 20.335L45.0317 16.6008L40.063 17.5242L35.8875 15.0005ZM35.8875 21.566C44.9573 21.566 52.3101 28.0333 52.3101 36.0107C52.3101 43.9882 44.9573 50.4554 35.8875 50.4554C26.8177 50.4554 19.4648 43.9882 19.4648 36.0107C19.4648 28.0333 26.8177 21.566 35.8875 21.566ZM43.1423 29.4039L33.438 38.5139L28.3526 34.5334L25.3667 37.4675L32.085 42.7202L33.718 43.9923L35.211 42.597L46.4082 32.0918L43.1423 29.4039Z" fill="white"/>
</g>
</svg>
