<svg width="72" height="72" viewBox="0 0 72 72" fill="none" xmlns="http://www.w3.org/2000/svg">
<rect width="72" height="72" rx="10" fill="#FB7422"/>
<mask id="mask0_140_3" style="mask-type:luminance" maskUnits="userSpaceOnUse" x="12" y="14" width="48" height="45">
<path d="M12 14H59.7559V58.0077H12V14Z" fill="white"/>
</mask>
<g mask="url(#mask0_140_3)">
<path fill-rule="evenodd" clip-rule="evenodd" d="M35.9142 14.0146C36.5817 14.0146 37.2153 14.2732 37.6468 14.7214L42.0732 19.3196L48.7249 17.8895C49.3737 17.7501 50.0588 17.8688 50.5989 18.2142C51.1389 18.5595 51.479 19.0965 51.5288 19.6825L52.039 25.6925L58.3756 27.9767C58.9931 28.1994 59.4686 28.65 59.6747 29.2087C59.8809 29.7676 59.7975 30.378 59.4464 30.8779L55.8457 36.0038L59.4464 41.1299C59.7975 41.6297 59.8809 42.2399 59.6747 42.7988C59.4686 43.3577 58.9931 43.8083 58.3756 44.031L52.039 46.3152L51.5288 52.3252C51.479 52.911 51.1389 53.448 50.5989 53.7936C50.0588 54.1389 49.3737 54.2576 48.7249 54.118L42.0732 52.6881L37.6468 57.2861C37.2153 57.7346 36.5817 57.9931 35.9142 57.9931C35.2464 57.9931 34.6128 57.7346 34.1813 57.2861L29.7549 52.6881L23.1032 54.118C22.4546 54.2576 21.7693 54.1389 21.2292 53.7936C20.6892 53.448 20.3491 52.911 20.2993 52.3252L19.7893 46.3152L13.4527 44.031C12.835 43.8083 12.3598 43.3577 12.1536 42.7988C11.9472 42.2399 12.0308 41.6297 12.3817 41.1299L15.9827 36.0038L12.3817 30.8779C12.0308 30.378 11.9472 29.7676 12.1536 29.2087C12.3598 28.65 12.835 28.1994 13.4527 27.9767L19.7893 25.6925L20.2993 19.6825C20.3491 19.0965 20.6892 18.5595 21.2292 18.2142C21.7693 17.8688 22.4546 17.7501 23.1032 17.8895L29.7549 19.3196L34.1813 14.7214C34.6128 14.2732 35.2464 14.0146 35.9142 14.0146ZM24.5579 29.0073C24.5579 26.2473 27.1 24.0097 30.2361 24.0097C33.3719 24.0097 35.9139 26.2473 35.9139 29.0073C35.9139 31.7673 33.3719 34.0047 30.2361 34.0047C27.1 34.0047 24.5579 31.7673 24.5579 29.0073ZM41.592 38.0028C38.4562 38.0028 35.9139 40.2404 35.9139 43.0004C35.9139 45.7605 38.4562 47.9978 41.592 47.9978C44.7279 47.9978 47.2699 45.7605 47.2699 43.0004C47.2699 40.2404 44.7279 38.0028 41.592 38.0028ZM43.3928 26.5941L25.223 42.5863L28.4351 45.4134L46.6048 29.4212L43.3928 26.5941Z" fill="white"/>
</g>
</svg>
